<?xml version="1.0" encoding="utf-8"?>
<!-- Generator: Adobe Illustrator 19.2.1, SVG Export Plug-In . SVG Version: 6.00 Build 0)  -->
<svg version="1.1" id="layer" xmlns="http://www.w3.org/2000/svg" xmlns:xlink="http://www.w3.org/1999/xlink" x="0px" y="0px"
	 viewBox="0 0 652 652" style="enable-background:new 0 0 652 652;" xml:space="preserve">
<style type="text/css">
	.st0{fill:#0064A6;}
</style>
<g>
	<path class="st0" d="M552.5,375.1c-5.6-6.4-13.7-10-22.1-10.1C518,365.1,507,373,503,384.7c0,0-1,3.6-1,3.6l-1.2,5.3
		c0,0-19.9,88.6-23.1,102.6c-0.8-3.7-19.9-92-19.9-92c-0.8-3.8-2-8.7-3.5-13.2l-1.3-3.8c-5.6-13.4-18.5-22-33-22
		c-13.8,0-26.5,8.1-32.4,20.7c-1,2.6-1.9,5.6-2.8,9c-0.8,3.2-1.5,6.5-2.1,9.3c0,0-16.9,79.3-19.7,92.4c-0.8-3.6-24.8-103-24.8-103
		l-1-4.2c-0.7-2.6-1.3-4.7-1.9-6.5c-4.6-10.7-15.1-17.6-26.7-17.7c-8.4,0-16.5,3.7-22.1,10.1c-4.1,4.7-6.5,10.5-7,16.8l-0.1,1.2
		c0,1.7,0.1,3.4,0.3,5.2c0.6,6,2.1,10.8,3.5,15.5l38.8,126.4l0.8,2.7l2,5.8c6,13.7,19.5,22.6,34.4,22.7h0.3
		c15.5,0,29.2-9.4,34.9-23.8c0-0.1,1.8-6.4,1.8-6.4c0,0,0.3-1.2,0.3-1.2s22.1-88,22.9-91.1c0.8,3.2,23.2,92.3,23.2,92.3l1.7,5.9
		c5.5,14.5,19.6,24.3,35.1,24.3h0.3c14.6-0.1,28-8.7,34.1-22c0.8-2.1,1.6-4.4,2.4-7l0.6-2.1l38.9-126.4c1.4-4.7,3-9.5,3.5-15.5
		c0.2-1.8,0.2-3.4,0.2-5.2l0-1.2C559.1,385.7,556.6,379.9,552.5,375.1 M488.8,142.9c-22.4,0-41.7,7.8-56,22.4v-63.6v-0.5
		c-0.3-16.5-14-29.9-30.4-29.9c-16.8,0-30.4,13.7-30.4,30.4v217.9c0,16.8,13.6,30.4,30.4,30.4c16.6,0,30.2-13.5,30.4-30v-0.4v-87.5
		c0-23.4,18.9-37.9,36.4-37.9c25.7,0,29.5,20.5,29.5,32.8v92.6l0,0.5c0.2,16.5,13.9,29.9,30.4,29.9c16.8,0,30.4-13.7,30.4-30.4
		V216.6C559.6,170.5,533.1,142.9,488.8,142.9 M269.6,512v-89c0-37.1-31.7-57.5-89.1-57.5c-53.9,0-87.2,25.6-87.2,50.1
		c0,13.6,11,24.6,24.6,24.6c5.9,0,11.3-2.1,15.6-5.6c2.7-2,5.2-4.4,7.7-6.9c8.2-8,17.5-17,38.9-17c14.7,0,30.4,4.9,30.4,18.8
		c0,12.1-6.8,15.1-20.2,16.6l-32.3,3.6c-38,4.4-76.8,15.5-76.8,64c0,35.8,32,57.1,62.9,57.1c29.1,0,51.6-8.8,70.4-27.3
		c2.9,17.6,14.6,27.3,33.5,27.3c15.1,0,27-10.3,27-23.4c0-3.6-0.9-6.6-1.9-10.1C271.6,532.1,269.6,525.3,269.6,512 M213.5,494.6
		c0,19.6-17.8,38.5-46.8,38.5c-18.2,0-29.4-9.8-29.4-21.8c0-16,12-22.9,34.1-26.2l19.3-2.9c6.2-1.1,17.1-2.9,22.9-8.4V494.6z
		 M180.4,176.9c0,10.7,6.8,20.1,17,23.5c2.7,0.8,5.5,1.1,8.3,1.1h67.8c-2.6,2.8-93.9,102.1-93.9,102.1c-5.3,5.6-7.9,13-7.9,21.9
		l0,1.2c0.5,10.8,8.8,22.7,25.8,23.4l1.7,0.1h135.1c2.9,0,5.7-0.4,8.4-1.2c10.1-3.4,16.9-12.7,16.9-23.4c0-10.6-6.8-20.1-16.9-23.4
		v0c-2.7-0.8-5.5-1.2-8.4-1.2H256c2.6-2.8,92.1-101,92.1-101c6-6.4,9.4-13.8,9.4-20.4l-0.1-2.5c-0.3-4.5-1.3-8.5-3.1-11.9
		c-2.8-5.5-7.4-9.4-13.3-11.3c-2.8-0.9-6-1.4-9.2-1.4h-126c-2.9,0-5.6,0.4-8.3,1.1C187.2,156.9,180.4,166.3,180.4,176.9"/>
</g>
</svg>
