<?xml version="1.0" encoding="UTF-8" standalone="no"?>
<!DOCTYPE svg PUBLIC "-//W3C//DTD SVG 20010904//EN" "http://www.w3.org/TR/2001/REC-SVG-20010904/DTD/svg10.dtd">
<svg version="1.0" xmlns="http://www.w3.org/2000/svg" width="1100.000000pt" height="1100.000000pt" viewBox="0 0 1100.000000 1100.000000" preserveAspectRatio="xMidYMid meet">
<metadata>
Created by potrace 1.14, written by Peter Selinger 2001-2017
</metadata>
<g transform="translate(0.000000,1100.000000) scale(0.100000,-0.100000)" fill="rgb(96, 120, 255)" stroke="none">
<path d="M5258 9995 c-2 -2 -48 -5 -103 -9 -55 -3 -116 -8 -135 -11 -97 -12 -119 -15 -163 -20 -26 -3 -94 -14 -150 -25 -776 -143 -1448 -453 -2057 -949 -141 -114 -163 -134 -320 -291 -154 -154 -245 -252 -320 -350 -19 -25 -37 -47 -40 -50 -4 -3 -33 -41 -66 -85 -293 -389 -523 -826 -676 -1289 -44 -133 -128 -448 -142 -531 -2 -16 -11 -68 -20 -115 -17 -101 -23 -136 -32 -215 -3 -33 -8 -69 -10 -79 -25 -136 -25 -826 1 -950 2 -12 7 -48 10 -81 3 -33 8 -71 10 -85 10 -75 16 -117 20 -130 2 -8 7 -31 10 -50 50 -296 182 -724 315 -1015 56 -124 160 -328 218 -425 65 -111 181 -293 192 -300 4 -3 13 -16 20 -29 15 -28 161 -218 234 -306 95 -111 131 -150 281 -300 419 -419 922 -752 1475 -977 181 -74 464 -165 615 -198 22 -5 49 -11 60 -14 98 -23 280 -57 370 -70 246 -35 331 -40 635 -40 319 -1 447 8 725 50 760 115 1544 471 2155 978 158 131 395 361 511 496 35 41 66 77 69 80 9 8 183 233 206 265 253 362 416 670 578 1095 53 141 158 517 181 649 2 14 13 78 24 141 11 63 23 147 26 185 4 39 9 72 10 75 24 42 25 907 1 949 -2 3 -6 38 -10 76 -4 39 -8 81 -10 95 -6 37 -30 174 -31 180 -1 3 -5 25 -9 50 -5 25 -21 99 -37 165 -16 66 -31 127 -33 135 -60 245 -214 643 -352 905 -169 322 -403 662 -632 918 -75 83 -311 317 -386 382 -37 33 -73 65 -80 70 -6 6 -31 26 -56 45 -25 19 -47 37 -50 41 -3 3 -52 41 -109 83 -327 243 -693 444 -1074 590 -155 60 -405 138 -527 166 -310 70 -492 98 -765 119 -89 7 -550 12 -557 6z m-1157 -2527 c0 -18 2 -40 3 -48 2 -8 6 -40 10 -70 19 -167 53 -283 131 -445 141 -294 362 -523 647 -670 142 -73 278 -118 458 -150 61 -11 323 -14 390 -4 106 15 111 16 197 38 186 46 409 159 559 282 64 53 205 205 257 277 60 84 154 251 164 292 3 14 9 30 13 35 13 17 58 167 70 235 21 108 25 142 28 220 l2 40 219 0 219 0 -1 -1882 -2 -1883 -217 -2 -218 -2 -1 57 c0 31 -2 64 -4 73 -1 8 -6 42 -9 75 -22 186 -111 429 -220 594 -240 366 -616 602 -1046 658 -104 13 -360 7 -450 -12 -368 -75 -672 -262 -900 -552 -63 -79 -155 -245 -207 -370 -21 -49 -72 -255 -78 -313 -4 -31 -8 -69 -10 -86 -2 -16 -4 -51 -4 -77 l-1 -46 -200 0 -200 0 0 1884 0 1884 200 0 200 0 1 -32z"/>
</g>
</svg>